<?xml version="1.0" encoding="iso-8859-1"?>
<!-- Generator: Adobe Illustrator 19.0.0, SVG Export Plug-In . SVG Version: 6.00 Build 0)  -->
<svg version="1.1" id="Capa_1" xmlns="http://www.w3.org/2000/svg" xmlns:xlink="http://www.w3.org/1999/xlink" x="0px" y="0px"
	 viewBox="0 0 480.067 480.067" style="enable-background:new 0 0 480.067 480.067;" xml:space="preserve">
<path style="fill:#EE2849;" d="M168.034,160.067h144c26.51,0,48,21.49,48,48v64c0,26.51-21.49,48-48,48h-144
	c-26.51,0-48-21.49-48-48v-64C120.034,181.558,141.524,160.067,168.034,160.067z"/>
<path style="fill:#EFF2FA;" d="M208.034,192.067v96l80-48L208.034,192.067z"/>
<circle style="fill:#F2CBA7;" cx="240.034" cy="392.067" r="24"/>
<path style="fill:#75E6FF;" d="M208.034,472.067v-24c0-17.673,14.327-32,32-32s32,14.327,32,32v24H208.034z"/>
<circle style="fill:#F2CBA7;" cx="240.034" cy="32.067" r="24"/>
<path style="fill:#3FD100;" d="M208.034,112.067v-24c0-17.673,14.327-32,32-32s32,14.327,32,32v24H208.034z"/>
<circle style="fill:#F2CBA7;" cx="440.034" cy="312.067" r="24"/>
<path style="fill:#1598FC;" d="M408.034,392.067v-24c0-17.673,14.327-32,32-32s32,14.327,32,32v24H408.034z"/>
<circle style="fill:#F2CBA7;" cx="440.034" cy="112.067" r="24"/>
<path style="fill:#FAA41B;" d="M408.034,192.067v-24c0-17.673,14.327-32,32-32s32,14.327,32,32v24H408.034z"/>
<circle style="fill:#F2CBA7;" cx="40.034" cy="312.067" r="24"/>
<path style="fill:#EE2849;" d="M8.034,392.067v-24c0-17.673,14.327-32,32-32s32,14.327,32,32v24H8.034z"/>
<circle style="fill:#F2CBA7;" cx="40.034" cy="112.067" r="24"/>
<path style="fill:#FFD33F;" d="M8.034,192.067v-24c0-17.673,14.327-32,32-32s32,14.327,32,32v24H8.034z"/>
<path d="M112.034,208.067v64c0.035,30.913,25.087,55.965,56,56h144c30.913-0.035,55.965-25.087,56-56v-64
	c-0.035-30.913-25.087-55.965-56-56h-144C137.12,152.103,112.069,177.154,112.034,208.067z M352.034,208.067v64
	c-0.026,22.08-17.92,39.974-40,40h-144c-22.08-0.026-39.974-17.92-40-40v-64c0.026-22.08,17.92-39.974,40-40h144
	C334.114,168.094,352.007,185.987,352.034,208.067z"/>
<path d="M204.09,295.027c2.51,1.422,5.591,1.382,8.064-0.104l80-48c3.786-2.277,5.01-7.192,2.733-10.979
	c-0.674-1.121-1.613-2.059-2.733-2.733l-80-48c-3.787-2.275-8.702-1.05-10.978,2.738c-0.747,1.244-1.142,2.667-1.142,4.118v96
	C200.034,290.948,201.583,293.607,204.09,295.027z M216.034,206.195l56.448,33.872l-56.448,33.872V206.195z"/>
<path d="M200.034,448.067v24c0,4.418,3.582,8,8,8h64c4.418,0,8-3.582,8-8v-24c-0.006-13.301-6.623-25.73-17.656-33.16
	c12.651-12.34,12.904-32.6,0.563-45.251c-12.34-12.651-32.6-12.904-45.251-0.563c-12.651,12.34-12.904,32.6-0.563,45.251
	c0.185,0.19,0.373,0.378,0.563,0.563C206.657,422.338,200.039,434.766,200.034,448.067L200.034,448.067z M224.034,392.067
	c0-8.837,7.163-16,16-16c8.837,0,16,7.163,16,16s-7.163,16-16,16C231.197,408.067,224.034,400.904,224.034,392.067z
	 M216.034,448.067c0-13.255,10.745-24,24-24c13.255,0,24,10.745,24,24v16h-48V448.067z"/>
<path d="M200.034,88.067v24c0,4.418,3.582,8,8,8h64c4.418,0,8-3.582,8-8v-24c-0.006-13.301-6.623-25.73-17.656-33.16
	c12.651-12.34,12.904-32.6,0.563-45.251c-12.34-12.651-32.6-12.904-45.251-0.563s-12.904,32.6-0.563,45.251
	c0.185,0.19,0.373,0.378,0.563,0.563C206.657,62.338,200.039,74.766,200.034,88.067L200.034,88.067z M224.034,32.067
	c0-8.837,7.163-16,16-16c8.837,0,16,7.163,16,16s-7.163,16-16,16C231.197,48.067,224.034,40.904,224.034,32.067z M216.034,88.067
	c0-13.255,10.745-24,24-24c13.255,0,24,10.745,24,24v16h-48V88.067z"/>
<path d="M462.378,334.907c12.651-12.34,12.904-32.6,0.563-45.251c-12.34-12.651-32.6-12.904-45.251-0.563s-12.904,32.6-0.563,45.251
	c0.185,0.19,0.373,0.378,0.563,0.563c-11.033,7.43-17.65,19.859-17.656,33.16v24c0,4.418,3.582,8,8,8h64c4.418,0,8-3.582,8-8v-24
	C480.028,354.766,473.41,342.338,462.378,334.907z M424.034,312.067c0-8.837,7.163-16,16-16s16,7.163,16,16s-7.163,16-16,16
	S424.034,320.904,424.034,312.067z M464.034,384.067h-48v-16c0-13.255,10.745-24,24-24s24,10.745,24,24V384.067z"/>
<path d="M462.378,134.907c12.651-12.34,12.904-32.6,0.563-45.251c-12.34-12.651-32.6-12.904-45.251-0.563s-12.904,32.6-0.563,45.251
	c0.185,0.19,0.373,0.378,0.563,0.563c-11.033,7.43-17.65,19.859-17.656,33.16v24c0,4.418,3.582,8,8,8h64c4.418,0,8-3.582,8-8v-24
	C480.028,154.766,473.41,142.338,462.378,134.907z M424.034,112.067c0-8.837,7.163-16,16-16s16,7.163,16,16s-7.163,16-16,16
	S424.034,120.904,424.034,112.067z M464.034,184.067h-48v-16c0-13.255,10.745-24,24-24s24,10.745,24,24V184.067z"/>
<path d="M8.034,400.067h64c4.418,0,8-3.582,8-8v-24c-0.006-13.301-6.623-25.73-17.656-33.16c12.651-12.34,12.904-32.6,0.563-45.251
	c-12.34-12.651-32.6-12.904-45.251-0.563c-12.651,12.34-12.904,32.6-0.563,45.251c0.185,0.19,0.373,0.378,0.563,0.563
	c-11.033,7.43-17.65,19.859-17.656,33.16v24C0.034,396.486,3.615,400.067,8.034,400.067z M24.034,312.067c0-8.837,7.163-16,16-16
	s16,7.163,16,16s-7.163,16-16,16S24.034,320.904,24.034,312.067z M16.034,368.067c0-13.255,10.745-24,24-24s24,10.745,24,24v16h-48
	V368.067z"/>
<path d="M8.034,200.067h64c4.418,0,8-3.582,8-8v-24c-0.006-13.301-6.623-25.73-17.656-33.16c12.651-12.34,12.904-32.6,0.563-45.251
	s-32.6-12.904-45.251-0.563s-12.904,32.6-0.563,45.251c0.185,0.19,0.373,0.378,0.563,0.563c-11.033,7.43-17.65,19.859-17.656,33.16
	v24C0.034,196.486,3.615,200.067,8.034,200.067z M24.034,112.067c0-8.837,7.163-16,16-16s16,7.163,16,16s-7.163,16-16,16
	S24.034,120.904,24.034,112.067z M16.034,168.067c0-13.255,10.745-24,24-24s24,10.745,24,24v16h-48V168.067z"/>
<g>
</g>
<g>
</g>
<g>
</g>
<g>
</g>
<g>
</g>
<g>
</g>
<g>
</g>
<g>
</g>
<g>
</g>
<g>
</g>
<g>
</g>
<g>
</g>
<g>
</g>
<g>
</g>
<g>
</g>
</svg>
